<svg xmlns="http://www.w3.org/2000/svg" width="10" height="60" viewBox="0 0 10 60" fill="none"><path d="M9.072 56.316C9.072 56.94 8.972 57.54 8.772 58.116C8.564 58.684 8.3 59.124 7.98 59.436L7.296 59.088C7.584 58.792 7.828 58.396 8.028 57.9C8.22 57.396 8.316 56.868 8.316 56.316C8.316 55.788 8.252 55.36 8.124 55.032C7.988 54.696 7.808 54.452 7.584 54.3C7.36 54.14 7.112 54.06 6.84 54.06C6.512 54.06 6.248 54.156 6.048 54.348C5.848 54.532 5.692 54.776 5.58 55.08C5.46 55.384 5.356 55.72 5.268 56.088C5.18 56.456 5.088 56.824 4.992 57.192C4.888 57.56 4.752 57.9 4.584 58.212C4.416 58.516 4.196 58.764 3.924 58.956C3.644 59.14 3.28 59.232 2.832 59.232C2.416 59.232 2.036 59.124 1.692 58.908C1.34 58.684 1.06 58.344 0.852 57.888C0.636 57.432 0.528 56.848 0.527999 56.136C0.527999 55.664 0.596 55.196 0.732 54.732C0.859999 54.268 1.04 53.868 1.272 53.532L1.98 53.832C1.74 54.192 1.564 54.576 1.452 54.984C1.34 55.384 1.284 55.772 1.284 56.148C1.284 56.652 1.352 57.068 1.488 57.396C1.624 57.724 1.808 57.968 2.04 58.128C2.264 58.28 2.52 58.356 2.808 58.356C3.136 58.356 3.4 58.264 3.6 58.08C3.8 57.888 3.956 57.64 4.068 57.336C4.18 57.024 4.28 56.684 4.368 56.316C4.456 55.948 4.552 55.584 4.656 55.224C4.76 54.856 4.896 54.52 5.064 54.216C5.224 53.904 5.44 53.656 5.712 53.472C5.984 53.28 6.34 53.184 6.78 53.184C7.188 53.184 7.568 53.296 7.92 53.52C8.264 53.744 8.544 54.088 8.76 54.552C8.968 55.008 9.072 55.596 9.072 56.316ZM4.356 50.4572L4.356 46.0172L5.112 46.0172L5.112 50.4572L4.356 50.4572ZM8.232 50.3612L8.232 45.3092L9 45.3092L9 51.2492L0.599999 51.2492L0.599999 45.4892L1.368 45.4892L1.368 50.3612L8.232 50.3612ZM9 43.2218L0.599999 43.2218L0.599999 40.0778C0.599999 39.3658 0.715999 38.7538 0.947999 38.2418C1.172 37.7298 1.5 37.3378 1.932 37.0658C2.356 36.7858 2.872 36.6458 3.48 36.6458C4.072 36.6458 4.584 36.7858 5.016 37.0658C5.44 37.3378 5.768 37.7298 6 38.2418C6.224 38.7538 6.336 39.3658 6.336 40.0778L6.336 42.7298L5.928 42.3338L9 42.3338L9 43.2218ZM9 37.4858L5.952 39.6458L5.952 38.6858L9 36.5138L9 37.4858ZM6 42.3338L5.58 42.7298L5.58 40.1018C5.58 39.2618 5.396 38.6258 5.028 38.1938C4.66 37.7538 4.144 37.5338 3.48 37.5338C2.808 37.5338 2.288 37.7538 1.92 38.1938C1.552 38.6258 1.368 39.2618 1.368 40.1018L1.368 42.7298L0.947999 42.3338L6 42.3338ZM9 32.162L0.599998 35.882L0.599998 34.922L8.508 31.442L8.508 31.97L0.599998 28.466L0.599998 27.566L9 31.286L9 32.162ZM9 26.3468L0.599998 26.3468L0.599998 25.4588L9 25.4588L9 26.3468ZM9.072 19.0777C9.072 19.7097 8.968 20.2937 8.76 20.8297C8.544 21.3657 8.244 21.8297 7.86 22.2217C7.476 22.6137 7.024 22.9217 6.504 23.1457C5.984 23.3617 5.416 23.4697 4.8 23.4697C4.184 23.4697 3.616 23.3617 3.096 23.1457C2.576 22.9217 2.124 22.6137 1.74 22.2217C1.356 21.8217 1.06 21.3537 0.851998 20.8177C0.635998 20.2817 0.527998 19.6977 0.527998 19.0657C0.527998 18.4577 0.631998 17.8857 0.839998 17.3497C1.04 16.8137 1.344 16.3617 1.752 15.9937L2.316 16.5577C1.964 16.9017 1.712 17.2817 1.56 17.6977C1.4 18.1137 1.32 18.5617 1.32 19.0417C1.32 19.5457 1.408 20.0137 1.584 20.4457C1.752 20.8777 1.996 21.2537 2.316 21.5737C2.628 21.8937 2.996 22.1457 3.42 22.3297C3.836 22.5057 4.296 22.5937 4.8 22.5937C5.304 22.5937 5.768 22.5057 6.192 22.3297C6.608 22.1457 6.976 21.8937 7.296 21.5737C7.608 21.2537 7.852 20.8777 8.028 20.4457C8.196 20.0137 8.28 19.5457 8.28 19.0417C8.28 18.5617 8.2 18.1137 8.04 17.6977C7.88 17.2817 7.624 16.9017 7.272 16.5577L7.836 15.9937C8.244 16.3617 8.552 16.8137 8.76 17.3497C8.968 17.8857 9.072 18.4617 9.072 19.0777ZM4.356 13.3087L4.356 8.86875L5.112 8.86875L5.112 13.3087L4.356 13.3087ZM8.232 13.2127L8.232 8.16075L9 8.16075L9 14.1007L0.599997 14.1007L0.599997 8.34075L1.368 8.34075L1.368 13.2127L8.232 13.2127ZM9.072 3.75741C9.072 4.38141 8.972 4.98141 8.772 5.55741C8.564 6.12541 8.3 6.56541 7.98 6.87741L7.296 6.52941C7.584 6.23341 7.828 5.83741 8.028 5.34141C8.22 4.83741 8.316 4.30941 8.316 3.75741C8.316 3.22941 8.252 2.80141 8.124 2.47341C7.988 2.13741 7.808 1.89341 7.584 1.74141C7.36 1.58141 7.112 1.50141 6.84 1.50141C6.512 1.50141 6.248 1.59741 6.048 1.78941C5.848 1.97341 5.692 2.21741 5.58 2.52141C5.46 2.82541 5.356 3.16141 5.268 3.52941C5.18 3.89741 5.088 4.26541 4.992 4.63341C4.888 5.00141 4.752 5.34141 4.584 5.65341C4.416 5.95741 4.196 6.20541 3.924 6.39741C3.644 6.58141 3.28 6.67341 2.832 6.67341C2.416 6.67341 2.036 6.56541 1.692 6.34941C1.34 6.12541 1.06 5.78541 0.851997 5.32941C0.635997 4.87341 0.527997 4.28941 0.527997 3.57741C0.527997 3.10541 0.595997 2.63741 0.731997 2.17341C0.859997 1.70941 1.04 1.30941 1.272 0.973406L1.98 1.27341C1.74 1.63341 1.564 2.01741 1.452 2.42541C1.34 2.82541 1.284 3.21341 1.284 3.58941C1.284 4.09341 1.352 4.50941 1.488 4.83741C1.624 5.16541 1.808 5.40941 2.04 5.56941C2.264 5.72141 2.52 5.79741 2.808 5.79741C3.136 5.79741 3.4 5.70541 3.6 5.52141C3.8 5.32941 3.956 5.08141 4.068 4.77741C4.18 4.46541 4.28 4.12541 4.368 3.75741C4.456 3.38941 4.552 3.02541 4.656 2.66541C4.76 2.29741 4.896 1.96141 5.064 1.65741C5.224 1.34541 5.44 1.09741 5.712 0.913405C5.984 0.721406 6.34 0.625406 6.78 0.625406C7.188 0.625405 7.568 0.737405 7.92 0.961405C8.264 1.18541 8.544 1.52941 8.76 1.99341C8.968 2.44941 9.072 3.03741 9.072 3.75741Z" fill="#C40000"></path></svg>